<svg id="레이어_1" data-name="레이어 1" xmlns="http://www.w3.org/2000/svg" viewBox="0 0 570 768.9"><defs><style>.cls-1{fill:#f33;}</style></defs><title>18</title><path class="cls-1" d="M108.74,389S115.25,240.54,256,245.23c0,0,120.34-5,148.23,144.86.31,1.65,32.23-10.95,33.9-12.07,56.24-37.7,71.58-104.26,41.07-160.76a85.26,85.26,0,0,0-58.42-42.81c-24.57-4.81-55.26,10.72-77.95-5.21-16.19-11.38-17.55-38.9,0-49.76,0,0,105.53-65.25,192.67,46.59,0,0,127,195.18-106.62,315.27,0,0-9.3,75.75,38.57,170.05,0,0,26,48.88,13.3,90.29,0,0-7.44,25.58-33.71,25.58-24.09,0-25.14-21.12-52.36-45-17-14.9-57.53-27.57-57.53-27.57s-133.78-46.61-138.77,32.4c0,0,.38,40.11-30.48,41.63,0,0-40.22,10.89-69.5-77.26,0,0-21.63-57.52-7.78-196.55,0,0-154-92.8-60.6-307.51A140.53,140.53,0,0,0,42,133.11c.23-20.63-4-45.38-20.48-66.42,0,0-11.28-11.53-16.39-26.26C-1.66,21,12.43,1.19,33,.35c14.69-.6,34.54,3.78,51.18,25.76,0,0,66.44,73.47,5,204.75C89.14,230.86,47.58,349.39,108.74,389Z" transform="translate(0 -0.3)"/></svg>