<svg id="레이어_1" data-name="레이어 1" xmlns="http://www.w3.org/2000/svg" viewBox="0 0 781 767.42"><defs><style>.cls-1{fill:#c7df95;}</style></defs><title>2</title><path class="cls-1" d="M443.49,357.19s-15.38-192.34-176.9-187c0,0-138.39-12.47-170.41,159.75.57-3.05-13.92-23.88-13.41-60C84.1,174.57,162.7,84.68,259,83.51c28.39-.35,89.58,16.57,92.94-28C357.75-22.2,235,2.26,192.33,11.45,150,20.56,96.63,38.93,41.55,125.35c0,0-109,166.77,26.19,309.34,0,0,10.76,86.94-44.25,195.31,0,0-31.66,63.35-16.89,100.18,0,0,13.09,37.7,44.47,37.7,25.88,0,40.75-27.66,40.75-27.66S108.91,701.83,149,688.7c0,0,175.92-63.64,183.87,28.3,0,0-3.25,49.82,34.88,49.82,0,0,46.2,10.68,79.87-90.67,0,0,26-64.1,10.06-224,.44,4.34,87.79-12.36,136.2-96.06,18.67-32.27,43.7-75.62,99.94-38.58,15.45,10.18,21,28.32,49.1,28.32,44.21,0,37.77-45.86,37.77-45.86-26-80.08-109.17-85.43-124.82-85.43-18.73,0-88.1-1.13-138.61,86.39C517.24,300.93,498.08,348.94,443.49,357.19Z" transform="translate(0 -0.46)"/></svg>