<svg id="레이어_1" data-name="레이어 1" xmlns="http://www.w3.org/2000/svg" viewBox="0 0 570 663.18"><defs><style>.cls-1{fill:#999;}</style></defs><title>23</title><path class="cls-1" d="M128,317s11.66-139.82,144.13-135.58c0,0,113.65-10.08,139.7,131.22,0,0,126.33-19.58,75.92-156.56,0,0-26.77-57.8-111.74-43.74-19.67,3.26-28.93-6-33.81-22.54-7-23.58,19.2-36.79,19.2-36.79,23.78-12.86,111.53-32.53,174.28,48.39,22.51,22.53,103.64,208-105.84,302.79,0,0-1.89,25.48,6.63,66.1,17.11,81.6,21.31,88.62,22.07,124.71,0,0,3.44,67.68-40.29,67.68-35.1,0-40.51-34.26-40.51-34.26-10.8-26.06-17.11-42.93-98.58-42.93-40.2,0-94.27-1.91-107,42.93,0,0-2.95,33.66-33.69,33.66-16.44,0-35.44,0-43.61-57.22,0,0-6.41-32.38,11.93-122.23,3.57-17.48,8.14-34.71,9.63-76.66,0,0-172.58-114.19-97.39-301.34,0,0,19.14-58.18,107.53-98.91,0,0,46.85-20.47,58.35,12.87,9.93,29.62-17.11,42-37.4,52.33,0,0-31.09,13.19-60.72,56.34C56.21,171.73,64.1,268.76,128,317Z" transform="translate(0 0.47)"/></svg>