<svg xmlns="http://www.w3.org/2000/svg" width="111" height="44.359" viewBox="0 0 111 44.359">
    <defs>
        <filter id="다각형_2" width="32.211" height="32.718" x="73.395" y="11.641" filterUnits="userSpaceOnUse">
            <feOffset dx="2"/>
            <feGaussianBlur result="blur" stdDeviation="2"/>
            <feFlood flood-opacity=".161"/>
            <feComposite in2="blur" operator="in"/>
            <feComposite in="SourceGraphic"/>
        </filter>
        <filter id="사각형_1506" width="111" height="34" x="0" y="0" filterUnits="userSpaceOnUse">
            <feOffset dx="2"/>
            <feGaussianBlur result="blur-2" stdDeviation="2"/>
            <feFlood flood-opacity=".161"/>
            <feComposite in2="blur-2" operator="in"/>
            <feComposite in="SourceGraphic"/>
        </filter>
        <style>
            .cls-3,.cls-4{stroke:#485582;fill:#6a82c3}.cls-4{stroke-width:.5px}.cls-5{stroke:none}
        </style>
    </defs>
    <g id="그룹_34" transform="translate(-1812 -2341.75)">
        <g filter="url(#다각형_2)" transform="translate(1812 2341.75)">
            <g id="다각형_2-2" fill="#fff">
                <path d="M13.427 15.5H1.573c-.174 0-.328-.084-.422-.232-.093-.147-.105-.322-.03-.48L7.046 2.144c.125-.267.378-.288.453-.288.075 0 .328.02.453.288l5.927 12.644c.074.158.062.333-.031.48-.094.148-.248.232-.422.232z" class="cls-5" transform="rotate(155.5 45.388 26.633)"/>
                <path fill="#485582" d="M7.5 2.356L1.573 15h11.854L7.5 2.356m0-1c.363 0 .726.192.905.576l5.927 12.644c.311.663-.173 1.424-.905 1.424H1.573c-.732 0-1.216-.761-.905-1.424L6.595 1.932c.18-.384.542-.576.905-.576z" transform="rotate(155.5 45.388 26.633)"/>
            </g>
        </g>
        <g filter="url(#사각형_1506)" transform="translate(1812 2341.75)">
            <g id="사각형_1506-2" fill="#fff" stroke="#485582" transform="translate(4 6)">
                <rect width="99" height="22" class="cls-5" rx="11"/>
                <rect width="98" height="21" x=".5" y=".5" fill="none" rx="10.5"/>
            </g>
        </g>
        <path id="패스_214" d="M386.754 236.8s.24-2.877 2.969-2.79c0 0 2.341-.207 2.878 2.7 0 0 2.6-.4 1.564-3.222a2.017 2.017 0 0 0-2.3-.9.555.555 0 0 1-.7-.464c-.144-.485.4-.757.4-.757a2.97 2.97 0 0 1 3.59 1c.464.464 2.135 4.281-2.18 6.232a5.383 5.383 0 0 0 .137 1.361 12.43 12.43 0 0 1 .455 2.566s.071 1.393-.83 1.393a.843.843 0 0 1-.835-.7c-.222-.536-.352-.884-2.031-.884-.828 0-1.942-.039-2.2.884 0 0-.061.693-.694.693-.338 0-.73 0-.9-1.178a7.55 7.55 0 0 1 .246-2.516 7.589 7.589 0 0 0 .2-1.578s-3.555-2.35-2.006-6.2a3.977 3.977 0 0 1 2.215-2.036s.965-.421 1.2.265c.2.609-.353.864-.77 1.077a3.294 3.294 0 0 0-1.262 1.154 3.161 3.161 0 0 0 .854 3.9z" class="cls-3" transform="translate(1458.115 2121.748)"/>
        <path id="패스_216" d="M222.241 239.923s.279-3.487 3.209-3.391c0 0 2.51-.226 3.091 2.9a2.721 2.721 0 0 0 .243-1.087 3.429 3.429 0 0 0-3.2-3.38c-.515-.006-1.625.3-1.686-.507-.106-1.409 2.121-.965 2.895-.8a4 4 0 0 1 2.735 2.065 4.627 4.627 0 0 1-.475 5.608 6.717 6.717 0 0 0 .8 3.541 2.9 2.9 0 0 1 .306 1.816s-.238.683-.807.683a.962.962 0 0 1-.739-.5 1.876 1.876 0 0 0-1.037-.934s-3.191-1.154-3.335.513c0 0 .059.9-.633.9 0 0-.838.194-1.449-1.644a9.551 9.551 0 0 1-.182-4.061 3.377 3.377 0 0 1-2.471-1.741c-.339-.585-.793-1.371-1.813-.7-.28.185-.381.513-.891.513-.8 0-.685-.831-.685-.831a2.367 2.367 0 0 1 2.264-1.549 2.731 2.731 0 0 1 2.519 1.563 1.78 1.78 0 0 0 1.341 1.023z" class="cls-3" transform="translate(1656.114 2118.295)"/>
        <path id="패스_217" d="M309.909 230.167s.136-3.106 3.084-3.008c0 0 2.52-.1 3.1 3.031a4.206 4.206 0 0 0 .71-.252 2.511 2.511 0 0 0 .86-3.364 1.785 1.785 0 0 0-1.223-.9c-.514-.1-1.157.224-1.632-.109a.644.644 0 0 1 0-1.041 3.036 3.036 0 0 1 4.034.975s2.659 4.084-2.232 6.6a6.759 6.759 0 0 0 .808 3.558 2.887 2.887 0 0 1 .278 1.889.759.759 0 0 1-.706.535c-.5 0-.526-.442-1.1-.94a4.389 4.389 0 0 0-1.2-.577s-2.8-.975-2.905.678c0 0 .008.839-.638.871 0 0-.842.228-1.455-1.616a10.2 10.2 0 0 1-.163-4.112s-3.224-1.942-1.269-6.434a2.938 2.938 0 0 0 .249-1.137 2.181 2.181 0 0 0-.429-1.39 1.688 1.688 0 0 1-.343-.549.633.633 0 0 1 .584-.839 1.239 1.239 0 0 1 1.072.539s1.391 1.537.1 4.284c.007-.001-.864 2.479.416 3.308z" class="cls-3" transform="translate(1581.501 2127.76)"/>
        <path id="패스_88" d="M1208.047 689.253a6.307 6.307 0 0 0-.352-2.775 3.965 3.965 0 0 0-.966-1.229 4.3 4.3 0 0 0-4.3-.21c-1.3.583-1.7 2.068-2.519 3.14a1.094 1.094 0 0 1-.875.433c-.96.129-2.513.63-2.508 1.807a1.294 1.294 0 0 1-.149.683c-.821 1.737.477 3.675 2.2 4.177a10.861 10.861 0 0 0 5.777.164 3.545 3.545 0 0 0 2.675-1.656c.133-.2.157-.5.368-.632a3.813 3.813 0 0 0 1.95-1.616 1.788 1.788 0 0 0-.147-2.555c-.401-.276-.801.116-1.154.269zm1.186 1.338l-.025.05a.016.016 0 0 1-.009.021l-.027.052a.012.012 0 0 1-.006.02 3.309 3.309 0 0 1-1.636 1.833c.182-.922.292-1.829.4-2.72.3-.146.578-.272.847-.408a.193.193 0 0 1 .238.04.971.971 0 0 1 .217 1.112zm-12.281-.237c.214-.92 1.549-1.257 2.366-1.346 1.173-.075 1.753-2.082 2.408-2.891a3.8 3.8 0 0 1 3.4-1.053c2.35.268 2.758 2.833 2.385 4.766-.1.583-.128 1.183-.244 1.764-.11.441-.249.876-.36 1.317a2.572 2.572 0 0 1-.886 1.407h-.01c-2.182 1.443-8.458 1.67-9.343-1.434a2.176 2.176 0 0 1 .054-1.471c.02-.055.028-.056.089-.026a3.32 3.32 0 0 0 2.129 1.188c.358.079.718.154 1.08.211.28 0 .273-.146.186-.371-1.176-.39-3.244-.407-3.254-2.061z" class="cls-4" transform="translate(629.871 1670.182)"/>
        <path id="패스_89" d="M1197.892 689.253a6.307 6.307 0 0 1 .352-2.775 3.965 3.965 0 0 1 .966-1.229 4.3 4.3 0 0 1 4.3-.21c1.3.583 1.7 2.068 2.519 3.14a1.094 1.094 0 0 0 .875.433c.96.129 2.513.63 2.508 1.807a1.294 1.294 0 0 0 .149.683c.821 1.737-.477 3.675-2.2 4.177a10.861 10.861 0 0 1-5.777.164 3.545 3.545 0 0 1-2.675-1.656c-.133-.2-.157-.5-.368-.632a3.813 3.813 0 0 1-1.95-1.616 1.788 1.788 0 0 1 .147-2.555c.399-.276.802.116 1.154.269zm-1.186 1.338l.025.05a.016.016 0 0 0 .009.021l.027.052a.012.012 0 0 0 .006.02 3.309 3.309 0 0 0 1.636 1.833c-.182-.922-.292-1.829-.4-2.72-.3-.146-.578-.272-.847-.408a.193.193 0 0 0-.238.04.971.971 0 0 0-.218 1.112zm12.281-.237c-.214-.92-1.549-1.257-2.366-1.346-1.173-.075-1.753-2.082-2.408-2.891a3.8 3.8 0 0 0-3.4-1.053c-2.35.268-2.758 2.833-2.385 4.766.1.583.128 1.183.244 1.764.11.441.249.876.36 1.317a2.572 2.572 0 0 0 .886 1.407h.01c2.182 1.443 8.458 1.67 9.343-1.434a2.176 2.176 0 0 0-.054-1.471c-.02-.055-.028-.056-.089-.026a3.32 3.32 0 0 1-2.129 1.188c-.358.079-.718.154-1.08.211-.28 0-.273-.146-.186-.371 1.176-.39 3.243-.407 3.254-2.061z" class="cls-4" transform="translate(661.19 1670.182)"/>
    </g>
</svg>
