<svg xmlns="http://www.w3.org/2000/svg" width="62.532" height="43.966" viewBox="0 0 62.532 43.966">
    <defs>
        <filter id="패스_24" width="23.105" height="21.717" x="3.564" y="3.097" filterUnits="userSpaceOnUse">
            <feOffset dx="3"/>
            <feGaussianBlur result="blur" stdDeviation="3"/>
            <feFlood flood-opacity=".161"/>
            <feComposite in2="blur" operator="in"/>
            <feComposite in="SourceGraphic"/>
        </filter>
        <filter id="패스_25" width="20.079" height="27.207" x="3.65" y="16.563" filterUnits="userSpaceOnUse">
            <feOffset dx="3"/>
            <feGaussianBlur result="blur-2" stdDeviation="3"/>
            <feFlood flood-opacity=".161"/>
            <feComposite in2="blur-2" operator="in"/>
            <feComposite in="SourceGraphic"/>
        </filter>
        <filter id="패스_26" width="54.338" height="23.262" x="3.65" y="0" filterUnits="userSpaceOnUse">
            <feOffset dx="3"/>
            <feGaussianBlur result="blur-3" stdDeviation="3"/>
            <feFlood flood-opacity=".161"/>
            <feComposite in2="blur-3" operator="in"/>
            <feComposite in="SourceGraphic"/>
        </filter>
        <filter id="패스_27" width="58.934" height="39.169" x="3.598" y="4.797" filterUnits="userSpaceOnUse">
            <feOffset dx="3"/>
            <feGaussianBlur result="blur-4" stdDeviation="3"/>
            <feFlood flood-opacity=".161"/>
            <feComposite in2="blur-4" operator="in"/>
            <feComposite in="SourceGraphic"/>
        </filter>
        <style>
            .cls-1{fill:#aedfec}.cls-1,.cls-3,.cls-4{stroke:#485582;stroke-width:.5px}.cls-1,.cls-3{opacity:.9}.cls-3{fill:#e0f1f6}.cls-4{fill:none;stroke-linecap:round;stroke-linejoin:round}
        </style>
    </defs>
    <g id="그룹_38" transform="translate(-1070.246 -1900.109)">
        <g id="그룹_25" transform="translate(1070.5 1909.359)">
            <g filter="url(#패스_24)" transform="translate(-.25 -9.25)">
                <path id="패스_24-2" d="M246.32 611.116a.3.3 0 0 0-.037.017l-.035-.085v-1.9l-.033-.131a4.5 4.5 0 0 1 4.48 1.778h.023l-.228 1.047a3.665 3.665 0 0 0-4.17-.726z" class="cls-1" transform="translate(-236.35 -596.51)"/>
            </g>
            <g filter="url(#패스_25)" transform="translate(-.25 -9.25)">
                <path id="패스_25-2" d="M246.374 682.75v-8.818l.108-.035a5.673 5.673 0 0 0 .8 1.142 6.976 6.976 0 0 0 .647.62z" class="cls-1" transform="translate(-236.47 -648.03)"/>
            </g>
            <g filter="url(#패스_26)" transform="translate(-.25 -9.25)">
                <path id="패스_26-2" d="M246.374 594.931v-1.2H262v2.045h20.211v2.717h-29.27a6.159 6.159 0 0 0-6.385-3.452c-.054.01-.114.023-.178.037z" class="cls-1" transform="translate(-236.47 -584.48)"/>
            </g>
            <g filter="url(#패스_27)" transform="translate(-.25 -9.25)">
                <path id="패스_27-2" fill="#aedfec" stroke="#485582" stroke-width="0.5px" d="M253 616.91l33.608-.033.139.068-4.507 20.6h-35.83l1.55-7.085 2.69-12.291.267-1.223.124-.035z" transform="translate(-236.51 -602.83)"/>
            </g>
            <path id="패스_28" d="M239.536 603.368a4.5 4.5 0 0 0-4.48-1.778 2.946 2.946 0 0 0-.533.2c-.605.255-1.747 1.179-2.23.265-.8-1.507 1.689-2.139 2.8-2.371.064-.014.124-.027.178-.037a6.159 6.159 0 0 1 6.385 3.452h-1.8l-.247.07-.046.205z" class="cls-3" transform="translate(-225.442 -598.335)"/>
            <path id="패스_29" d="M207.519 623.832s-1.44-4.188 1.987-5.583a.294.294 0 0 1 .037-.017 3.665 3.665 0 0 1 4.169.725l-2.69 12.291a6.99 6.99 0 0 1-.647-.62 5.675 5.675 0 0 1-.8-1.142 18.381 18.381 0 0 1-1.484-3.512c-2.97 1.119-4.82-2.986-6.252-.674-.234.361-.184.8-.779 1.055a.879.879 0 0 1-1.225-.624 3.018 3.018 0 0 1 1.859-2.963c2.934-1.29 3.336 1.468 5.825 1.064z" class="cls-3" transform="translate(-199.824 -612.873)"/>
            <path id="패스_30" d="M246.374 594.931v-1.2H262" class="cls-4" transform="translate(-236.727 -593.727)"/>
            <path id="선_2" d="M0 1.904L0 0" class="cls-4" transform="translate(9.646 3.386)"/>
            <path id="선_3" d="M0 8.818L0 0" class="cls-4" transform="translate(9.646 16.649)"/>
            <path id="선_4" d="M0 0L0 2.541" class="cls-4" transform="translate(45.485 2.222)"/>
            <path id="선_5" d="M0 0L0 0.176" class="cls-4" transform="translate(45.485 2.045)"/>
            <path id="선_6" d="M0 0L0 1.94" class="cls-4" transform="translate(25.274)"/>
            <path id="선_7" d="M20.211 0L0 0" class="cls-4" transform="translate(25.274 2.045)"/>
            <path id="선_8" d="M0 0L0.147 0.07" class="cls-4" transform="translate(49.853 4.762)"/>
            <path id="선_9" d="M0 0.07L0.247 0" class="cls-4" transform="translate(14.162 4.762)"/>
            <path id="패스_31" d="M282.212 716.617h-35.838" class="cls-4" transform="translate(-236.727 -691.15)"/>
            <path id="패스_32" d="M246.374 637.68l1.552-7.091 2.69-12.291.228-1.047.046-.205" class="cls-4" transform="translate(-236.727 -612.214)"/>
            <path id="선_10" d="M0 0.033L0.006 0" class="cls-4" transform="translate(49.994 4.833)"/>
            <path id="선_11" d="M0 20.601L4.507 0" class="cls-4" transform="translate(45.485 4.866)"/>
            <path id="패스_33" d="M304.8 616.707h-35.446" class="cls-4" transform="translate(-254.945 -611.945)"/>
            <path id="패스_34" d="M239.536 603.368a4.5 4.5 0 0 0-4.48-1.778 2.941 2.941 0 0 0-.533.2c-.605.255-1.747 1.179-2.23.265-.8-1.507 1.689-2.139 2.8-2.371.064-.014.124-.027.178-.037a6.159 6.159 0 0 1 6.385 3.452.5.5 0 0 1 .031.068c.006.012.01.025.017.037" class="cls-4" transform="translate(-225.442 -598.335)"/>
            <path id="패스_35" d="M211.029 631.255l-.006-.006a6.99 6.99 0 0 1-.647-.62 5.678 5.678 0 0 1-.8-1.142 18.384 18.384 0 0 1-1.484-3.512c-2.97 1.119-4.82-2.986-6.252-.674-.234.361-.184.8-.779 1.055a.879.879 0 0 1-1.225-.624 3.018 3.018 0 0 1 1.859-2.963c2.93-1.291 3.332 1.467 5.821 1.063 0 0-1.44-4.188 1.987-5.583a.285.285 0 0 1 .037-.017 3.665 3.665 0 0 1 4.169.725l.006.006" class="cls-4" transform="translate(-199.824 -612.873)"/>
            <path id="패스_36" d="M440.394 616.877l.139.068" class="cls-4" transform="translate(-390.541 -612.079)"/>
            <path id="패스_37" d="M268.164 616.947l.124-.035.122-.035" class="cls-4" transform="translate(-254.002 -612.079)"/>
            <path id="선_12" d="M35.838 0L0 0" class="cls-4" transform="translate(9.646 25.502)"/>
            <path id="패스_38" d="M246.374 637.851l.008-.035 1.55-7.085 2.69-12.291.267-1.223" class="cls-4" transform="translate(-236.727 -612.349)"/>
            <path id="선_13" d="M0 20.634L4.516 0" class="cls-4" transform="translate(45.485 4.868)"/>
            <path id="패스_39" d="M303.855 616.877l-33.608.033h-2.082" class="cls-4" transform="translate(-254.002 -612.079)"/>
        </g>
    </g>
</svg>
