<svg xmlns="http://www.w3.org/2000/svg" width="57" height="58" viewBox="0 0 57 58">
    <g transform="translate(-192 -1434)">
        <ellipse cx="28.5" cy="29" fill="#fee600" rx="28.5" ry="29" transform="translate(192 1434)"/>
        <path fill="#47292b" d="M278.368 495.169a9.968 9.968 0 0 0 2.7-4.429 10.793 10.793 0 0 1-3.463-2.908 7.609 7.609 0 0 1 .295-9.848 12.09 12.09 0 0 1 8.454-4.069 13.528 13.528 0 0 1 9.542 2.553 8.029 8.029 0 0 1 3.177 8.908 9.524 9.524 0 0 1-5.039 5.5 14.478 14.478 0 0 1-8.022 1.395 1.5 1.5 0 0 0-.873.211 26.954 26.954 0 0 1-5.847 2.688 6.757 6.757 0 0 1-.8.169z" transform="translate(-66.936 978.15)"/>
    </g>
</svg>
