<svg xmlns="http://www.w3.org/2000/svg" width="58" height="58" viewBox="0 0 58 58">
    <defs>
        <style>
            .cls-2{fill:#fff;stroke:#fff;stroke-width:.5px}
        </style>
    </defs>
    <g id="그룹_884" transform="translate(-124 -1434)">
        <circle id="타원_128" cx="29" cy="29" r="29" fill="#674688" transform="translate(124 1434)"/>
        <g id="Icon_ionic-ios-link" transform="translate(139.625 1449.625)">
            <path id="패스_2644" d="M14.535 20.519h-.058a.8.8 0 0 0-.462.216l-3.107 3.107a3.5 3.5 0 0 1-4.955-4.955l3.3-3.3a3.482 3.482 0 0 1 .548-.447 3.536 3.536 0 0 1 .712-.361 3.368 3.368 0 0 1 .722-.178 3.411 3.411 0 0 1 .491-.034c.067 0 .135 0 .221.01a3.493 3.493 0 0 1 2.251 1.01 3.449 3.449 0 0 1 .823 1.313.757.757 0 0 0 .928.486h.024a.751.751 0 0 0 .505-.919 4.359 4.359 0 0 0-1.183-1.972 5.064 5.064 0 0 0-2.771-1.409c-.091-.014-.183-.029-.274-.038a4.964 4.964 0 0 0-.534-.029c-.125 0-.25 0-.37.014a4.851 4.851 0 0 0-.779.12c-.053.01-.1.024-.154.038a5 5 0 0 0-.938.351 4.941 4.941 0 0 0-1.332.957l-3.3 3.3a5.074 5.074 0 0 0-1.468 3.581A5.058 5.058 0 0 0 12 24.954l3.141-3.141a.761.761 0 0 0-.606-1.294z" class="cls-2" transform="translate(0 -3.045)"/>
            <path id="패스_2645" d="M25.1 4.852a5.069 5.069 0 0 0-7.153 0L14.88 7.916a.773.773 0 0 0 .486 1.318.781.781 0 0 0 .611-.221l3.069-3.059A3.5 3.5 0 0 1 24 10.908l-3.3 3.3a3.482 3.482 0 0 1-.548.447 3.536 3.536 0 0 1-.712.361 3.368 3.368 0 0 1-.722.178 3.411 3.411 0 0 1-.491.034c-.067 0-.139 0-.221-.01a3.457 3.457 0 0 1-3.04-2.237.769.769 0 0 0-.919-.471.777.777 0 0 0-.544.986 4.394 4.394 0 0 0 1.14 1.8l.01.01a5.064 5.064 0 0 0 3.047 1.451 4.964 4.964 0 0 0 .534.029q.188 0 .375-.014a5.5 5.5 0 0 0 .928-.154 5 5 0 0 0 .938-.351 4.941 4.941 0 0 0 1.332-.957l3.3-3.3a5.063 5.063 0 0 0-.01-7.158z" class="cls-2" transform="translate(-3.188)"/>
        </g>
    </g>
</svg>
