<svg xmlns="http://www.w3.org/2000/svg" width="40" height="40" viewBox="0 0 40 40">
    <g>
        <g fill="none" stroke="#777dd6" transform="translate(-305 -756) translate(305 756)">
            <circle cx="20" cy="20" r="20" stroke="none"/>
            <circle cx="20" cy="20" r="19.5"/>
        </g>
        <path fill="#777dd6" d="M9.806 11.124l7.535 7.535a1.324 1.324 0 0 1 0 1.878l-1.252 1.252a1.324 1.324 0 0 1-1.878 0l-5.347-5.335-5.341 5.341a1.324 1.324 0 0 1-1.878 0L.387 20.543a1.324 1.324 0 0 1 0-1.878l7.535-7.535a1.326 1.326 0 0 1 1.884-.006z" transform="translate(-305 -756) translate(316.003 759.267)"/>
    </g>
</svg>
