<?xml version="1.0" encoding="utf-8"?>
<!-- Generator: Adobe Illustrator 23.0.0, SVG Export Plug-In . SVG Version: 6.00 Build 0)  -->
<svg version="1.1" id="레이어_1" xmlns="http://www.w3.org/2000/svg" xmlns:xlink="http://www.w3.org/1999/xlink" x="0px"
	 y="0px" viewBox="0 0 512.29 595.28" style="enable-background:new 0 0 512.29 595.28;" xml:space="preserve">
<style type="text/css">
	.st0{fill:#FFCCCC;}
</style>
<g>
	<path class="st0" d="M115.03,285.12c0,0,10.48-125.56,129.54-121.76c0,0,102.14-9.05,125.55,117.85c0,0,113.54-17.59,68.23-140.6
		c0,0-24.06-51.9-100.43-39.27c-17.68,2.92-26-5.39-30.39-20.24c-6.26-21.18,17.26-33.04,17.26-33.04
		c21.37-11.55,100.24-29.22,156.63,43.45c20.23,20.23,93.15,186.8-95.12,271.91c0,0-1.7,22.89,5.96,59.36
		c15.38,73.27,19.15,79.58,19.84,111.99c0,0,3.09,60.78-36.21,60.78c-31.55,0-36.41-30.76-36.41-30.76
		c-9.7-23.4-15.38-38.56-88.6-38.56c-36.13,0-84.72-1.71-96.21,38.56c0,0-2.66,30.23-30.28,30.23c-14.77,0-31.85,0-39.19-51.39
		c0,0-5.76-29.07,10.72-109.76c3.21-15.7,7.32-31.18,8.66-68.84c0,0-155.11-102.55-87.53-270.61c0,0,17.2-52.25,96.64-88.83
		c0,0,42.11-18.39,52.44,11.56c8.93,26.6-15.38,37.71-33.61,46.99c0,0-27.94,11.85-54.57,50.59
		C50.52,154.64,57.61,241.78,115.03,285.12z"/>
</g>
</svg>
