<svg xmlns="http://www.w3.org/2000/svg" width="111" height="44.478" viewBox="0 0 111 44.478">
    <defs>
        <filter id="다각형_9" width="32.496" height="32.956" x=".443" y="11.522" filterUnits="userSpaceOnUse">
            <feOffset dx="2"/>
            <feGaussianBlur result="blur" stdDeviation="2"/>
            <feFlood flood-opacity=".161"/>
            <feComposite in2="blur" operator="in"/>
            <feComposite in="SourceGraphic"/>
        </filter>
        <filter id="사각형_79" width="111" height="34" x="0" y="0" filterUnits="userSpaceOnUse">
            <feOffset dx="2"/>
            <feGaussianBlur result="blur-2" stdDeviation="2"/>
            <feFlood flood-opacity=".161"/>
            <feComposite in2="blur-2" operator="in"/>
            <feComposite in="SourceGraphic"/>
        </filter>
        <style>
            .cls-3{stroke:#9397d6;fill:#b68ccb}.cls-5{stroke:none}
        </style>
    </defs>
    <g id="그룹_60" transform="translate(-56 -254.308)">
        <g filter="url(#다각형_9)" transform="translate(56 254.31)">
            <g id="다각형_9-2" fill="#fff">
                <path d="M13.427 15.5H1.573c-.174 0-.328-.084-.422-.232-.093-.147-.105-.322-.03-.48L7.046 2.144c.125-.267.378-.288.453-.288.075 0 .328.02.453.288l5.927 12.644c.074.158.062.333-.031.48-.094.148-.248.232-.422.232z" class="cls-5" transform="rotate(-154 13.407 17.17)"/>
                <path fill="#9397d6" d="M7.5 2.356L1.573 15h11.854L7.5 2.356m0-1c.363 0 .726.192.905.576l5.927 12.644c.311.663-.173 1.424-.905 1.424H1.573c-.732 0-1.216-.761-.905-1.424L6.595 1.932c.18-.384.542-.576.905-.576z" transform="rotate(-154 13.407 17.17)"/>
            </g>
        </g>
        <g filter="url(#사각형_79)" transform="translate(56 254.31)">
            <g id="사각형_79-2" fill="#fff" stroke="#9397d6" transform="translate(4 6)">
                <rect width="99" height="22" class="cls-5" rx="11"/>
                <rect width="98" height="21" x=".5" y=".5" fill="none" rx="10.5"/>
            </g>
        </g>
        <path id="패스_1" d="M386.754 236.8s.24-2.877 2.969-2.79c0 0 2.341-.207 2.878 2.7 0 0 2.6-.4 1.564-3.222a2.017 2.017 0 0 0-2.3-.9.555.555 0 0 1-.7-.464c-.144-.485.4-.757.4-.757a2.97 2.97 0 0 1 3.59 1c.464.464 2.135 4.281-2.18 6.232a5.383 5.383 0 0 0 .137 1.361 12.43 12.43 0 0 1 .455 2.566s.071 1.393-.83 1.393a.843.843 0 0 1-.835-.7c-.222-.536-.352-.884-2.031-.884-.828 0-1.942-.039-2.2.884 0 0-.061.693-.694.693-.338 0-.73 0-.9-1.178a7.55 7.55 0 0 1 .246-2.516 7.589 7.589 0 0 0 .2-1.578s-3.555-2.35-2.006-6.2a3.977 3.977 0 0 1 2.215-2.036s.965-.421 1.2.265c.2.609-.353.864-.77 1.077a3.294 3.294 0 0 0-1.262 1.154 3.161 3.161 0 0 0 .854 3.9z" class="cls-3" transform="translate(-283.991 34.306)"/>
        <path id="패스_3" d="M549.581 239.923s-.279-3.487-3.209-3.391c0 0-2.51-.226-3.091 2.9a2.721 2.721 0 0 1-.243-1.087 3.429 3.429 0 0 1 3.2-3.38c.515-.006 1.625.3 1.686-.507.106-1.409-2.121-.965-2.895-.8a4 4 0 0 0-2.735 2.065 4.627 4.627 0 0 0 .475 5.608 6.717 6.717 0 0 1-.8 3.541 2.9 2.9 0 0 0-.307 1.816s.238.683.807.683a.962.962 0 0 0 .739-.5 1.877 1.877 0 0 1 1.037-.934s3.191-1.154 3.335.513c0 0-.059.9.633.9 0 0 .838.194 1.449-1.644a9.553 9.553 0 0 0 .183-4.061 3.377 3.377 0 0 0 2.471-1.741c.339-.585.793-1.371 1.813-.7.28.185.381.513.891.513.8 0 .685-.831.685-.831a2.367 2.367 0 0 0-2.264-1.549 2.731 2.731 0 0 0-2.514 1.566 1.781 1.781 0 0 1-1.346 1.02z" class="cls-3" transform="translate(-473.197 30.852)"/>
        <path id="패스_5" d="M222.241 239.923s.279-3.487 3.209-3.391c0 0 2.51-.226 3.091 2.9a2.721 2.721 0 0 0 .243-1.087 3.429 3.429 0 0 0-3.2-3.38c-.515-.006-1.625.3-1.686-.507-.106-1.409 2.121-.965 2.895-.8a4 4 0 0 1 2.735 2.065 4.627 4.627 0 0 1-.475 5.608 6.717 6.717 0 0 0 .8 3.541 2.9 2.9 0 0 1 .306 1.816s-.238.683-.807.683a.962.962 0 0 1-.739-.5 1.876 1.876 0 0 0-1.037-.934s-3.191-1.154-3.335.513c0 0 .059.9-.633.9 0 0-.838.194-1.449-1.644a9.551 9.551 0 0 1-.182-4.061 3.377 3.377 0 0 1-2.471-1.741c-.339-.585-.793-1.371-1.813-.7-.28.185-.381.513-.891.513-.8 0-.685-.831-.685-.831a2.367 2.367 0 0 1 2.264-1.549 2.731 2.731 0 0 1 2.519 1.563 1.78 1.78 0 0 0 1.341 1.023z" class="cls-3" transform="translate(-132.886 30.853)"/>
        <path id="패스_212" d="M222.241 239.923s.279-3.487 3.209-3.391c0 0 2.51-.226 3.091 2.9a2.721 2.721 0 0 0 .243-1.087 3.429 3.429 0 0 0-3.2-3.38c-.515-.006-1.625.3-1.686-.507-.106-1.409 2.121-.965 2.895-.8a4 4 0 0 1 2.735 2.065 4.627 4.627 0 0 1-.475 5.608 6.717 6.717 0 0 0 .8 3.541 2.9 2.9 0 0 1 .306 1.816s-.238.683-.807.683a.962.962 0 0 1-.739-.5 1.876 1.876 0 0 0-1.037-.934s-3.191-1.154-3.335.513c0 0 .059.9-.633.9 0 0-.838.194-1.449-1.644a9.551 9.551 0 0 1-.182-4.061 3.377 3.377 0 0 1-2.471-1.741c-.339-.585-.793-1.371-1.813-.7-.28.185-.381.513-.891.513-.8 0-.685-.831-.685-.831a2.367 2.367 0 0 1 2.264-1.549 2.731 2.731 0 0 1 2.519 1.563 1.78 1.78 0 0 0 1.341 1.023z" class="cls-3" transform="translate(-86.886 30.852)"/>
        <path id="패스_211" fill="#6a82c3" stroke="#9397d6" stroke-width="0.5px" d="M1197.892 689.253a6.307 6.307 0 0 1 .352-2.775 3.965 3.965 0 0 1 .966-1.229 4.3 4.3 0 0 1 4.3-.21c1.3.583 1.7 2.068 2.519 3.14a1.094 1.094 0 0 0 .875.433c.96.129 2.513.63 2.508 1.807a1.294 1.294 0 0 0 .149.683c.821 1.737-.477 3.675-2.2 4.177a10.861 10.861 0 0 1-5.777.164 3.545 3.545 0 0 1-2.675-1.656c-.133-.2-.157-.5-.368-.632a3.813 3.813 0 0 1-1.95-1.616 1.788 1.788 0 0 1 .147-2.555c.399-.276.802.116 1.154.269zm-1.186 1.338l.025.05a.016.016 0 0 0 .009.021l.027.052a.012.012 0 0 0 .006.02 3.309 3.309 0 0 0 1.636 1.833c-.182-.922-.292-1.829-.4-2.72-.3-.146-.578-.272-.847-.408a.193.193 0 0 0-.238.04.971.971 0 0 0-.218 1.112zm12.281-.237c-.214-.92-1.549-1.257-2.366-1.346-1.173-.075-1.753-2.082-2.408-2.891a3.8 3.8 0 0 0-3.4-1.053c-2.35.268-2.758 2.833-2.385 4.766.1.583.128 1.183.244 1.764.11.441.249.876.36 1.317a2.572 2.572 0 0 0 .886 1.407h.01c2.182 1.443 8.458 1.67 9.343-1.434a2.176 2.176 0 0 0-.054-1.471c-.02-.055-.028-.056-.089-.026a3.32 3.32 0 0 1-2.129 1.188c-.358.079-.718.154-1.08.211-.28 0-.273-.146-.186-.371 1.176-.39 3.243-.407 3.254-2.061z" transform="translate(-1081.81 -417.26)"/>
    </g>
</svg>
