<svg xmlns="http://www.w3.org/2000/svg" width="111" height="44.359" viewBox="0 0 111 44.359">
    <defs>
        <filter id="다각형_10" width="32.211" height="32.718" x="74.395" y="11.641" filterUnits="userSpaceOnUse">
            <feOffset dx="2"/>
            <feGaussianBlur result="blur" stdDeviation="2"/>
            <feFlood flood-opacity=".161"/>
            <feComposite in2="blur" operator="in"/>
            <feComposite in="SourceGraphic"/>
        </filter>
        <filter id="사각형_87" width="111" height="34" x="0" y="0" filterUnits="userSpaceOnUse">
            <feOffset dx="2"/>
            <feGaussianBlur result="blur-2" stdDeviation="2"/>
            <feFlood flood-opacity=".161"/>
            <feComposite in2="blur-2" operator="in"/>
            <feComposite in="SourceGraphic"/>
        </filter>
        <style>
            .cls-3,.cls-4{stroke:#9397d6}.cls-3{fill:#b68ccb}.cls-4{fill:#6a82c3;stroke-width:.5px}.cls-5{stroke:none}
        </style>
    </defs>
    <g id="그룹_61" transform="translate(-239 -228.641)">
        <g filter="url(#다각형_10)" transform="translate(239 228.64)">
            <g id="다각형_10-2" fill="#fff">
                <path d="M13.427 15.5H1.573c-.174 0-.328-.084-.422-.232-.093-.147-.105-.322-.03-.48L7.046 2.144c.125-.267.378-.288.453-.288.075 0 .328.02.453.288l5.927 12.644c.074.158.062.333-.031.48-.094.148-.248.232-.422.232z" class="cls-5" transform="rotate(155.5 45.888 26.74)"/>
                <path fill="#9397d6" d="M7.5 2.356L1.573 15h11.854L7.5 2.356m0-1c.363 0 .726.192.905.576l5.927 12.644c.311.663-.173 1.424-.905 1.424H1.573c-.732 0-1.216-.761-.905-1.424L6.595 1.932c.18-.384.542-.576.905-.576z" transform="rotate(155.5 45.888 26.74)"/>
            </g>
        </g>
        <g filter="url(#사각형_87)" transform="translate(239 228.64)">
            <g id="사각형_87-2" fill="#fff" stroke="#9397d6" transform="translate(4 6)">
                <rect width="99" height="22" class="cls-5" rx="11"/>
                <rect width="98" height="21" x=".5" y=".5" fill="none" rx="10.5"/>
            </g>
        </g>
        <path id="패스_2" d="M474.539 229.917s-.132-3.011-2.989-2.916c0 0-2.442-.1-3.008 2.938a4.079 4.079 0 0 1-.688-.245 2.434 2.434 0 0 1-.834-3.26 1.731 1.731 0 0 1 1.186-.868c.5-.1 1.121.217 1.582-.106a.624.624 0 0 0 0-1.009 2.942 2.942 0 0 0-3.91.945s-2.577 3.958 2.164 6.393a6.551 6.551 0 0 1-.783 3.449 2.8 2.8 0 0 0-.27 1.831.735.735 0 0 0 .684.519c.489 0 .51-.428 1.062-.912a4.255 4.255 0 0 1 1.168-.559s2.715-.945 2.816.657c0 0-.008.813.619.844 0 0 .816.221 1.41-1.567a9.88 9.88 0 0 0 .158-3.986s3.125-1.882 1.23-6.236a2.85 2.85 0 0 1-.242-1.1 2.115 2.115 0 0 1 .416-1.347 1.637 1.637 0 0 0 .333-.533.613.613 0 0 0-.566-.813 1.2 1.2 0 0 0-1.039.522s-1.348 1.49-.1 4.152c-.001 0 .842 2.404-.399 3.207z" class="cls-3" transform="translate(-159.946 15.257)"/>
        <path id="패스_4" d="M309.891 230.1s.135-3.081 3.058-2.984c0 0 2.5-.1 3.078 3.006a4.173 4.173 0 0 0 .7-.25 2.491 2.491 0 0 0 .853-3.336 1.771 1.771 0 0 0-1.213-.889c-.51-.1-1.147.222-1.619-.108a.638.638 0 0 1 0-1.032 3.011 3.011 0 0 1 4 .967s2.637 4.05-2.214 6.542a6.7 6.7 0 0 0 .8 3.529 2.864 2.864 0 0 1 .276 1.873.753.753 0 0 1-.7.531c-.5 0-.522-.438-1.087-.933a4.353 4.353 0 0 0-1.194-.572s-2.778-.967-2.882.672c0 0 .008.832-.633.864 0 0-.835.226-1.443-1.6a10.114 10.114 0 0 1-.162-4.078s-3.2-1.926-1.258-6.381a2.913 2.913 0 0 0 .247-1.128 2.163 2.163 0 0 0-.425-1.378 1.674 1.674 0 0 1-.341-.545.628.628 0 0 1 .579-.832 1.229 1.229 0 0 1 1.063.535s1.38 1.524.1 4.249c.01-.003-.853 2.456.417 3.278z" class="cls-3" transform="translate(11.767 15.257)"/>
        <path id="패스_225" d="M1197.892 689.253a6.307 6.307 0 0 1 .352-2.775 3.965 3.965 0 0 1 .966-1.229 4.3 4.3 0 0 1 4.3-.21c1.3.583 1.7 2.068 2.519 3.14a1.094 1.094 0 0 0 .875.433c.96.129 2.513.63 2.508 1.807a1.294 1.294 0 0 0 .149.683c.821 1.737-.477 3.675-2.2 4.177a10.861 10.861 0 0 1-5.777.164 3.545 3.545 0 0 1-2.675-1.656c-.133-.2-.157-.5-.368-.632a3.813 3.813 0 0 1-1.95-1.616 1.788 1.788 0 0 1 .147-2.555c.399-.276.802.116 1.154.269zm-1.186 1.338l.025.05a.016.016 0 0 0 .009.021l.027.052a.012.012 0 0 0 .006.02 3.309 3.309 0 0 0 1.636 1.833c-.182-.922-.292-1.829-.4-2.72-.3-.146-.578-.272-.847-.408a.193.193 0 0 0-.238.04.971.971 0 0 0-.218 1.112zm12.281-.237c-.214-.92-1.549-1.257-2.366-1.346-1.173-.075-1.753-2.082-2.408-2.891a3.8 3.8 0 0 0-3.4-1.053c-2.35.268-2.758 2.833-2.385 4.766.1.583.128 1.183.244 1.764.11.441.249.876.36 1.317a2.572 2.572 0 0 0 .886 1.407h.01c2.182 1.443 8.458 1.67 9.343-1.434a2.176 2.176 0 0 0-.054-1.471c-.02-.055-.028-.056-.089-.026a3.32 3.32 0 0 1-2.129 1.188c-.358.079-.718.154-1.08.211-.28 0-.273-.146-.186-.371 1.176-.39 3.243-.407 3.254-2.061z" class="cls-4" transform="translate(-939.81 -442.935)"/>
        <path id="패스_226" d="M1197.892 689.253a6.307 6.307 0 0 1 .352-2.775 3.965 3.965 0 0 1 .966-1.229 4.3 4.3 0 0 1 4.3-.21c1.3.583 1.7 2.068 2.519 3.14a1.094 1.094 0 0 0 .875.433c.96.129 2.513.63 2.508 1.807a1.294 1.294 0 0 0 .149.683c.821 1.737-.477 3.675-2.2 4.177a10.861 10.861 0 0 1-5.777.164 3.545 3.545 0 0 1-2.675-1.656c-.133-.2-.157-.5-.368-.632a3.813 3.813 0 0 1-1.95-1.616 1.788 1.788 0 0 1 .147-2.555c.399-.276.802.116 1.154.269zm-1.186 1.338l.025.05a.016.016 0 0 0 .009.021l.027.052a.012.012 0 0 0 .006.02 3.309 3.309 0 0 0 1.636 1.833c-.182-.922-.292-1.829-.4-2.72-.3-.146-.578-.272-.847-.408a.193.193 0 0 0-.238.04.971.971 0 0 0-.218 1.112zm12.281-.237c-.214-.92-1.549-1.257-2.366-1.346-1.173-.075-1.753-2.082-2.408-2.891a3.8 3.8 0 0 0-3.4-1.053c-2.35.268-2.758 2.833-2.385 4.766.1.583.128 1.183.244 1.764.11.441.249.876.36 1.317a2.572 2.572 0 0 0 .886 1.407h.01c2.182 1.443 8.458 1.67 9.343-1.434a2.176 2.176 0 0 0-.054-1.471c-.02-.055-.028-.056-.089-.026a3.32 3.32 0 0 1-2.129 1.188c-.358.079-.718.154-1.08.211-.28 0-.273-.146-.186-.371 1.176-.39 3.243-.407 3.254-2.061z" class="cls-4" transform="translate(-923.129 -442.935)"/>
        <path id="패스_227" d="M1197.892 689.253a6.307 6.307 0 0 1 .352-2.775 3.965 3.965 0 0 1 .966-1.229 4.3 4.3 0 0 1 4.3-.21c1.3.583 1.7 2.068 2.519 3.14a1.094 1.094 0 0 0 .875.433c.96.129 2.513.63 2.508 1.807a1.294 1.294 0 0 0 .149.683c.821 1.737-.477 3.675-2.2 4.177a10.861 10.861 0 0 1-5.777.164 3.545 3.545 0 0 1-2.675-1.656c-.133-.2-.157-.5-.368-.632a3.813 3.813 0 0 1-1.95-1.616 1.788 1.788 0 0 1 .147-2.555c.399-.276.802.116 1.154.269zm-1.186 1.338l.025.05a.016.016 0 0 0 .009.021l.027.052a.012.012 0 0 0 .006.02 3.309 3.309 0 0 0 1.636 1.833c-.182-.922-.292-1.829-.4-2.72-.3-.146-.578-.272-.847-.408a.193.193 0 0 0-.238.04.971.971 0 0 0-.218 1.112zm12.281-.237c-.214-.92-1.549-1.257-2.366-1.346-1.173-.075-1.753-2.082-2.408-2.891a3.8 3.8 0 0 0-3.4-1.053c-2.35.268-2.758 2.833-2.385 4.766.1.583.128 1.183.244 1.764.11.441.249.876.36 1.317a2.572 2.572 0 0 0 .886 1.407h.01c2.182 1.443 8.458 1.67 9.343-1.434a2.176 2.176 0 0 0-.054-1.471c-.02-.055-.028-.056-.089-.026a3.32 3.32 0 0 1-2.129 1.188c-.358.079-.718.154-1.08.211-.28 0-.273-.146-.186-.371 1.176-.39 3.243-.407 3.254-2.061z" class="cls-4" transform="translate(-906.447 -442.935)"/>
    </g>
</svg>
