<svg xmlns="http://www.w3.org/2000/svg" width="59.354" height="69" viewBox="0 0 59.354 69">
    <g>
        <path fill="#9f82b8" d="M465.678 151.477s1.214-14.547 15.008-14.106c0 0 11.834-1.049 14.546 13.653 0 0 13.155-2.037 7.906-16.29 0 0-2.787-6.014-11.636-4.551-2.048.339-3.011-.625-3.52-2.345-.726-2.454 2-3.828 2-3.828 2.475-1.338 11.613-3.385 18.147 5.034 2.344 2.345 10.793 21.643-11.021 31.5a27.217 27.217 0 0 0 .691 6.878c1.782 8.489 2.218 9.219 2.3 12.974 0 0 .358 7.042-4.2 7.042a4.264 4.264 0 0 1-4.219-3.564c-1.123-2.712-1.782-4.467-10.265-4.467-4.185 0-9.815-.2-11.146 4.467 0 0-.308 3.5-3.509 3.5-1.712 0-3.691 0-4.541-5.954 0 0-.667-3.369 1.242-12.717a38.341 38.341 0 0 0 1-7.976s-17.972-11.881-10.142-31.352c0 0 1.992-6.053 11.2-10.292 0 0 4.879-2.13 6.076 1.339 1.034 3.081-1.782 4.37-3.894 5.444 0 0-3.238 1.373-6.323 5.862-3.178 4.632-2.353 14.727 4.3 19.749z" transform="translate(-452.35 -118.443)"/>
        <path fill="#725f94" stroke="#725f94" stroke-miterlimit="10" d="M471.668 147.141a13.365 13.365 0 0 0-2.327 3.775 4.524 4.524 0 0 0 .5 4.242 2.776 2.776 0 0 0 3.927.455 11.542 11.542 0 0 0 2.8-3.716 4.26 4.26 0 0 0-.533-4.409c-1.059-1.15-3.49-1.469-4.367-.347z" transform="translate(-452.35 -118.443) translate(-3.723 -6.246)"/>
        <path fill="#755e9a" stroke="#725f94" stroke-miterlimit="10" d="M498.736 149.242a4.192 4.192 0 0 1 2.393-3.858c1.181-.26 2.423.785 3.153 1.75 1.479 1.955 2.484 5.245 1.582 6.589a3.466 3.466 0 0 1-2.486 1.138c-2.83-.143-4.642-2.222-4.642-5.619z" transform="translate(-452.35 -118.443) translate(-10.346 -6)"/>
        <path fill="#cbb1d4" stroke="#c7b0d0" stroke-linecap="round" stroke-linejoin="round" d="M0 0H21.172V14.374H0z" transform="translate(-452.35 -118.443) translate(479.764 158.954)"/>
        <path fill="#c7b0d0" stroke="#c7b0d0" stroke-linecap="round" stroke-linejoin="round" d="M498.544 191.448a2.867 2.867 0 0 0-2.129.564 1.15 1.15 0 0 0-.486.709.934.934 0 0 0 .4.831 2.245 2.245 0 0 0 .894.351 11.117 11.117 0 0 0 4.962-.209 2.425 2.425 0 0 0 1.481-.8.769.769 0 0 0 .125-.724.934.934 0 0 0-.552-.44 6.689 6.689 0 0 0-2.349-.322" transform="translate(-452.35 -118.443) translate(-9.719 -16.274)"/>
        <path fill="#785ea2" stroke="#755e9a" stroke-miterlimit="10" d="M475.364 146.012c2.557-3.082 6.9-4 10.689-4 3.385 0 7.5 1.45 9.057 2.827-.585.406-.313 1.511-.7 2.109a14.528 14.528 0 0 0-8.267-2.737c-4.107-.019-7.544 1.106-9.581 3.562-.34.404-.662-1.559-1.198-1.761z" transform="translate(-452.35 -118.443) translate(-5.133 -5.256)"/>
        <path fill="#4a3866" d="M476.719 148.414a8.764 8.764 0 0 1-4.008 6.581 2.66 2.66 0 0 1-2.457.442 4.463 4.463 0 0 1-1.73-2.43 4.4 4.4 0 0 0 1.134 3.2 3.086 3.086 0 0 0 2.905.824 5.237 5.237 0 0 0 2.583-1.907 9.3 9.3 0 0 0 1.843-3.148 4.483 4.483 0 0 0-.27-3.562z" opacity="0.502" transform="translate(-452.35 -118.443) translate(-3.605 -6.685)"/>
        <path fill="#4c3d67" d="M498.531 148.272a7.64 7.64 0 0 0 1.016 3.755 5.059 5.059 0 0 0 3.041 2.333 4.273 4.273 0 0 0 3.815-1.183 2.571 2.571 0 0 1-.458 1.57 4.578 4.578 0 0 1-1.633 1.092 4.441 4.441 0 0 1-4.861-1.8 6.442 6.442 0 0 1-.92-5.767z" opacity="0.502" transform="translate(-452.35 -118.443) translate(-10.223 -6.653)"/>
        <path fill="#4f4267" d="M478.894 147.375l-.478-.8a15.432 15.432 0 0 1 16.038.361l-.375.552a13.985 13.985 0 0 0-15.185-.117z" opacity="0.502" transform="translate(-452.35 -118.443) translate(-5.814 -5.814)"/>
        <path fill="#b890c0" stroke="#b28eba" stroke-linecap="round" stroke-linejoin="round" d="M487.386 170.08c-.238 4.839-.27 9.584-.27 14.381 0 0-1-.9-1.8-1.645v-14.484h21.172a15.117 15.117 0 0 1 1.8 1.748l-.023-.033c-6.988-.147-20.9.033-20.9.033-.626-.569-1.407-1.188-2.033-1.757" transform="translate(-452.35 -118.443) translate(-7.352 -11.125)"/>
        <path fill="#fff" stroke="#fff" stroke-linecap="round" stroke-linejoin="round" d="M501.114 177.144a.985.985 0 0 0-1.175-.528 1.522 1.522 0 0 0-.977.927 4.074 4.074 0 0 0-.218 1.326 1.7 1.7 0 0 0 .154 1 1.556 1.556 0 0 0 .9.587 3.978 3.978 0 0 0 3.159-.392 1.222 1.222 0 0 0 .706-1c-.037-.529-.646-.841-1.184-1.016s-1.194-.367-1.365-.904z" transform="translate(-452.35 -118.443) translate(-10.346 -12.968)"/>
        <path fill="none" stroke="#eca73e" stroke-linecap="round" stroke-linejoin="round" stroke-width="0.8px" d="M500.1 177.607c.138-.031.678-.075.7.113.034.319-.5.241-.674.235" transform="translate(-452.35 -118.443) translate(-10.65 -13.19)"/>
    </g>
</svg>
