<svg xmlns="http://www.w3.org/2000/svg" width="51.5" height="73.835" viewBox="0 0 51.5 73.835">
    <g>
        <path fill="none" stroke="#91cad8" stroke-miterlimit="10" stroke-width="0.5px" d="M369.406 141.183a5.076 5.076 0 0 0-.862 2.758 11.706 11.706 0 0 1-.4 2.895 2.764 2.764 0 0 1-2.011 1.933" transform="translate(-348.916 -111.093) translate(-4.907 -8.462)"/>
        <path fill="#91d1e0" d="M371.94 124.191a121.967 121.967 0 0 0-3.341 12.28 8.757 8.757 0 0 0 3.4 1.116 91.62 91.62 0 0 0 3.756-12.6" transform="translate(-348.916 -111.093) translate(-5.61 -3.619)"/>
        <path fill="#28b0cc" d="M373.416 121.761a2.9 2.9 0 0 1-2.347-1.651 3.983 3.983 0 0 1-.136-2.932 4.865 4.865 0 0 1 3.995-3.286 4.638 4.638 0 0 1 4.53 2.432 4.433 4.433 0 0 1-.822 5.043 4.216 4.216 0 0 1-5.22.394z" transform="translate(-348.916 -111.093) translate(-6.214 -.677)"/>
        <path fill="#49abbb" d="M390.591 152.2s-.588-13.4-13.308-12.981c0 0-10.873-.451-13.392 13.078a18.1 18.1 0 0 1-3.063-1.089 10.838 10.838 0 0 1-3.711-14.515 7.7 7.7 0 0 1 5.279-3.865c2.219-.434 4.992.968 7.042-.47a2.777 2.777 0 0 0 0-4.492s-9.534-5.891-17.408 4.206c0 0-11.474 17.622 9.633 28.465 0 0 .84 6.839-3.485 15.353 0 0-2.349 4.413-1.2 8.152a3.276 3.276 0 0 0 3.046 2.309c2.176 0 2.271-1.906 4.731-4.058 1.538-1.346 5.2-2.489 5.2-2.489s12.087-4.208 12.538 2.925c0 0-.034 3.621 2.754 3.758 0 0 3.634.984 6.28-6.975 0 0 1.954-5.193.7-17.746 0 0 13.911-8.379 5.475-27.763a12.694 12.694 0 0 1-1.076-4.906 9.411 9.411 0 0 1 1.851-6 7.3 7.3 0 0 0 1.481-2.372 2.731 2.731 0 0 0-2.519-3.619 5.346 5.346 0 0 0-4.624 2.327s-6 6.632-.45 18.486c-.003.006 3.751 10.707-1.774 14.281z" transform="translate(-348.916 -111.093) translate(0 -1.6)"/>
        <g fill="#fff" stroke-linecap="round" stroke-linejoin="round">
            <path d="M413.798 117.412c-.555 0-1.096-.08-1.609-.24-.656-.206-1.112-.515-1.356-.92-.29-.486-.262-1.067-.24-1.534.007-.13.01-.267.014-.412.015-.547.031-1.167.229-1.67.243-.62.808-1.09 1.549-1.289.133-.036.287-.054.457-.054.641 0 1.634.29 1.833.935.205.665.608.908 1.328 1.148 1.11.37 1.721.928 1.767 1.614.053.78-.645 1.34-1.065 1.603-.84.528-1.873.82-2.907.82z" transform="translate(-348.916 -111.093) translate(-17.633)"/>
            <path fill="#91cad8" d="M412.842 111.493c-.148 0-.287.015-.405.047-.64.172-1.181.575-1.415 1.17-.234.594-.197 1.383-.229 2.018-.024.485-.04 1 .212 1.42.258.43.752.679 1.244.832.5.156 1.024.232 1.549.232.987 0 1.975-.27 2.8-.788.52-.326 1.012-.828.972-1.42-.05-.75-.888-1.191-1.63-1.438-.741-.247-1.221-.517-1.456-1.279-.153-.496-.99-.794-1.642-.794m0-.4c.82 0 1.808.377 2.024 1.076.182.589.517.79 1.2 1.017 1.508.503 1.867 1.252 1.903 1.79.045.656-.367 1.29-1.158 1.787-.872.548-1.942.85-3.013.85-.575 0-1.136-.085-1.668-.25-.705-.22-1.199-.56-1.468-1.009-.323-.537-.291-1.178-.268-1.645.006-.13.01-.265.013-.408.015-.564.032-1.203.243-1.738.267-.68.88-1.193 1.683-1.41.15-.04.321-.06.509-.06z" transform="translate(-348.916 -111.093) translate(-17.633)"/>
        </g>
        <path fill="none" stroke="#f9ab36" stroke-linecap="round" stroke-linejoin="round" stroke-width="0.8px" d="M412.818 113.066c.189-.044.932-.107.961.159.047.453-.691.341-.929.333" transform="translate(-348.916 -111.093) translate(-18.213 -.437)"/>
    </g>
</svg>
