<svg xmlns="http://www.w3.org/2000/svg" width="53.017" height="61.633" viewBox="0 0 53.017 61.633">
    <defs>
        <style>
            .cls-5{stroke-miterlimit:10;fill:none;stroke:#fff;stroke-width:.2px}
        </style>
    </defs>
    <g id="그룹_116" transform="translate(-248.118 -126.461)">
        <path id="패스_268" fill="#db96bd" d="M260.022 155.968s1.085-12.994 13.406-12.6c0 0 10.57-.937 12.994 12.2 0 0 11.75-1.82 7.061-14.551 0 0-2.49-5.372-10.393-4.065-1.829.3-2.691-.558-3.145-2.094-.648-2.192 1.786-3.419 1.786-3.419a13.413 13.413 0 0 1 16.21 4.5c2.095 2.094 9.64 19.332-9.844 28.14a24.3 24.3 0 0 0 .617 6.143c1.592 7.583 1.982 8.236 2.054 11.59 0 0 .319 6.29-3.748 6.29a3.809 3.809 0 0 1-3.768-3.183c-1-2.422-1.591-3.991-9.169-3.991-3.739 0-8.768-.176-9.957 3.991 0 0-.275 3.129-3.134 3.129-1.528 0-3.3 0-4.056-5.318 0 0-.6-3.009 1.11-11.359a34.261 34.261 0 0 0 .9-7.125s-16.052-10.613-9.059-28.005c0 0 1.78-5.407 10-9.193 0 0 4.358-1.9 5.428 1.2.924 2.752-1.592 3.9-3.479 4.863a14.88 14.88 0 0 0-5.647 5.236c-2.843 4.118-2.109 13.136 3.833 17.621z"/>
        <path id="패스_269" fill="#cb6ba2" stroke="#c06999" stroke-miterlimit="10" d="M264.824 176.583c-6.812 4.1-5.413 14.789 2.49 16.884 4.62 1.225 8.783-3.709 13.562-3.709 3.951 0 5.766 1.673 7.549-.055 1.576-1.528 1.792-3.948 1.823-6.143.026-1.836-.12-3.916-1.528-5.094-1.542-1.289-3.6.115-7.9.115-4.509 0-11.025-4.991-15.996-1.998z" transform="translate(-3.775 -15.045)"/>
        <g id="그룹_115" transform="translate(259.35 156.776)">
            <path id="패스_270" fill="#c06999" stroke="#c06999" stroke-miterlimit="10" d="M303.661 185.742l8.406.179a2.8 2.8 0 0 0 1.8-.37 2.079 2.079 0 0 1 1.67-.407c.811.041.623 1.377.706 2.368a6.475 6.475 0 0 1-.081 1.507c-.271.764-.518.983-1.8.784-.846-.131-1.053-1.194-2.846-1.2-2.757-.011-3.491.054-7.887.054" transform="translate(-276.336 -174.731)"/>
            <path id="패스_271" fill="#f5cadd" stroke="#f1c9d9" stroke-miterlimit="10" d="M287.949 184.146a2.263 2.263 0 1 0 2.414 1.124 2.325 2.325 0 0 0-2.414-1.124z" transform="translate(-270.98 -174.415)"/>
            <path id="패스_272" d="M264.3 186.9l37.032.763" class="cls-5" transform="translate(-264.303 -175.269)"/>
            <path id="패스_273" d="M264.3 187.448l37.032.763" class="cls-5" transform="translate(-264.303 -175.438)"/>
            <path id="패스_274" d="M264.3 188l37.032.763" class="cls-5" transform="translate(-264.303 -175.606)"/>
            <path id="패스_275" d="M264.3 186.348l37.032.763" class="cls-5" transform="translate(-264.303 -175.101)"/>
            <path id="사각형_1553" fill="#eec8d5" d="M0 0H0.694V4.164H0z" transform="translate(1.085 9.692)"/>
            <path id="패스_276" fill="#fff" stroke="#fff" stroke-linecap="round" stroke-linejoin="round" d="M274.058 170.841a1.164 1.164 0 0 0-1.405-.657 1.851 1.851 0 0 0-1.167 1.154 5.235 5.235 0 0 0-.261 1.65 2.208 2.208 0 0 0 .184 1.249 1.864 1.864 0 0 0 1.081.732 4.592 4.592 0 0 0 3.777-.489 1.518 1.518 0 0 0 .844-1.25c-.044-.659-.772-1.047-1.416-1.264s-1.433-.455-1.637-1.125z" transform="translate(-266.418 -170.142)"/>
            <path id="패스_277" fill="none" stroke="#e2a245" stroke-linecap="round" stroke-linejoin="round" stroke-width="0.8px" d="M272.992 171.715c.423-.058.855-.068.865.107.019.309-.4.347-.836.259" transform="translate(-266.962 -170.612)"/>
        </g>
    </g>
</svg>
