<svg xmlns="http://www.w3.org/2000/svg" width="69.699" height="62.061" viewBox="0 0 69.699 62.061">
    <g>
        <path fill="#2b83bd" d="M159.578 160.344s-3.842-14.928 8.5-18.732c0 0 10.135-4.544 17.034 7.631a12 12 0 0 0-.545-4.878c-2.583-7.17-10.862-11.913-18.167-9.5-2.155.713-6.34 3.584-7.752.305-2.463-5.718 7.45-7.065 10.914-7.483 3.436-.413 7.948-.415 14.359 4.678 0 0 12.58 9.758 6.068 24.047 0 0 1.449 6.846 8.426 13.6 0 0 4.041 3.96 3.882 7.127 0 0-.009 3.189-2.38 4.006-1.956.674-3.8-1.028-3.8-1.028a8.271 8.271 0 0 0-5.66-2.4s-14.952-.227-13.159 6.924c0 0 1.542 3.678-1.34 4.671 0 0-3.214 2.009-8.395-4.769 0 0-3.636-4.164-6.588-16.658.08.34-6.956 1.352-12.793-3.71-2.25-1.951-5.269-4.574-8.556-.312-.9 1.171-.853 2.686-2.974 3.417-3.341 1.151-4.048-2.48-4.048-2.48-.117-6.726 6.028-9.294 7.211-9.7 1.416-.488 6.628-2.379 12.723 2.916a7.845 7.845 0 0 0 7.04 2.328z" transform="translate(-132.605 -127.528)"/>
        <path fill="#66aad5" stroke="#68a4ca" stroke-miterlimit="10" d="M191.744 149.035c-2.736-4.01-8.747-6.182-14.046-5.076s-9.439 5.4-9.4 10.238l-.009 2.283c8.642.144 17.311-2.549 23.455-7.445z" transform="translate(-132.605 -127.528) translate(-10.133 -4.584)"/>
        <path fill="#bde2f8" stroke="#bcdef2" stroke-linejoin="round" d="M191.232 151.349c-7.783 2.483-15.567 4.966-23.515 7.389-1.156 1.5-2.011 2.717-.309 3.828 1.75 1.142 7.009-1.386 8.048-1.686 7.644-2.214 10.25-4.818 16.005-9.671-.007.039-.015.072-.229.14z" transform="translate(-132.605 -127.528) translate(-9.61 -6.725)"/>
        <path fill="#fff" stroke="#fff" stroke-linecap="round" stroke-linejoin="round" d="M179.663 150.04a.908.908 0 0 0-1.186.066 1.4 1.4 0 0 0-.406 1.172 3.726 3.726 0 0 0 .383 1.176 1.572 1.572 0 0 0 .55.756 1.435 1.435 0 0 0 .989.1 3.666 3.666 0 0 0 2.419-1.66 1.124 1.124 0 0 0 .153-1.12c-.254-.418-.885-.415-1.4-.33s-1.135.208-1.502-.16z" transform="translate(-132.605 -127.528) translate(-12.909 -6.338)"/>
        <path fill="none" stroke="#e2a245" stroke-linecap="round" stroke-linejoin="round" stroke-width="0.8px" d="M178.9 151.077c.08-.074.43-.3.523-.154.159.249-.24.374-.36.431" transform="translate(-132.605 -127.528) translate(-13.147 -6.63)"/>
    </g>
</svg>
